<svg
  xmlns="http://www.w3.org/2000/svg"
  viewBox="0 0 512 512"
  width="512"
  height="512"
  fill="currentColor"
>
  <path
    id="id-card-icon"
    d="M64 96c-17.673 0-32 14.327-32 32v256c0 17.673 14.327 32 32 32h384c17.673 0 32-14.327 32-32V128c0-17.673-14.327-32-32-32H64zm192 80c35.346 0 64 28.654 64 64s-28.654 64-64 64-64-28.654-64-64 28.654-64 64-64zm-96 192c0-35.346 28.654-64 64-64h64c35.346 0 64 28.654 64 64v16H160v-16zm224-144h64v32h-64v-32zm0 64h64v32h-64v-32z"
  />
</svg>
